<svg version="1.1" xml:space="preserve" xmlns="http://www.w3.org/2000/svg" xmlns:xlink="http://www.w3.org/1999/xlink" xmlns:i="http://ns.adobe.com/AdobeIllustrator/10.0/" xmlns:sketch="http://www.bohemiancoding.com/sketch/ns" viewBox="0 0 640 480" preserveAspectRatio="xMidYMid meet" id="finaLogoTopsvg_0" style="display: block;"><defs></defs><rect viewBox="0 0 640 480" x="0px" y="0px" width="640" height="480" fill="none"></rect><g class="logo-container-box logoContainerBox" transform="scale(0.99) translate(3.2323308617177418,2.4242424242424363)"><g class="containerBody" transform="scale(0.7513147664488248) translate(159.72000637054447,79.44001464843751)"><g class="sampleIconBox" transform="scale(1) translate(-10,0)"><g class="sampleIcons_1" transform="scale(5.769230769230769) translate(-5.266666666666666,21.6)" fill="#000000"><g><path fill-rule="evenodd" clip-rule="evenodd" d="M32,19h-1.9l0.5-0.5c0.4-0.4,0.4-1,0-1.4c-0.4-0.4-1-0.4-1.4,0  L27.2,19h-2.3c-0.1-0.6-0.4-1.2-0.7-1.8l1.3-1.3l0.4,0.4c0.2,0.2,0.5,0.3,0.7,0.3s0.5-0.1,0.7-0.3c0.4-0.4,0.4-1,0-1.4l-0.4-0.4  l0.1-0.1c0.4-0.4,0.4-1,0-1.4c-0.4-0.4-1-0.4-1.4,0l-0.1,0.1l-0.4-0.4c-0.4-0.4-1-0.4-1.4,0c-0.4,0.4-0.4,1,0,1.4l0.4,0.4l-1.3,1.3  c-0.5-0.3-1.1-0.6-1.8-0.7v-2.3l1.9-1.9c0.4-0.4,0.4-1,0-1.4c-0.4-0.4-1-0.4-1.4,0L21,9.9V8c0-0.6-0.4-1-1-1c-0.6,0-1,0.4-1,1v1.9  l-0.5-0.5c-0.4-0.4-1-0.4-1.4,0c-0.4,0.4-0.4,1,0,1.4l1.9,1.9v2.3c-0.6,0.1-1.2,0.4-1.8,0.7L16,14.5l0.4-0.4c0.4-0.4,0.4-1,0-1.4  c-0.4-0.4-1-0.4-1.4,0l-0.4,0.4L14.4,13c-0.4-0.4-1-0.4-1.4,0c-0.4,0.4-0.4,1,0,1.4l0.1,0.1l-0.4,0.4c-0.4,0.4-0.4,1,0,1.4  c0.2,0.2,0.5,0.3,0.7,0.3c0.3,0,0.5-0.1,0.7-0.3l0.4-0.4l1.3,1.3c-0.3,0.5-0.6,1.1-0.7,1.8h-2.3l-1.9-1.9c-0.4-0.4-1-0.4-1.4,0  c-0.4,0.4-0.4,1,0,1.4L9.9,19H8c-0.6,0-1,0.4-1,1c0,0.6,0.4,1,1,1h1.9l-0.5,0.5c-0.4,0.4-0.4,1,0,1.4c0.2,0.2,0.5,0.3,0.7,0.3  c0.3,0,0.5-0.1,0.7-0.3l1.9-1.9h2.3c0.1,0.6,0.4,1.2,0.7,1.8L14.5,24l-0.4-0.4c-0.4-0.4-1-0.4-1.4,0c-0.4,0.4-0.4,1,0,1.4l0.4,0.4  L13,25.6c-0.4,0.4-0.4,1,0,1.4c0.2,0.2,0.5,0.3,0.7,0.3c0.3,0,0.5-0.1,0.7-0.3l0.1-0.1l0.4,0.4c0.2,0.2,0.5,0.3,0.7,0.3  c0.3,0,0.5-0.1,0.7-0.3c0.4-0.4,0.4-1,0-1.4L16,25.5l1.3-1.3c0.5,0.3,1.1,0.6,1.8,0.7v3.4l-1.9,1.9c-0.4,0.4-0.4,1,0,1.4  c0.2,0.2,0.5,0.3,0.7,0.3c0.3,0,0.5-0.1,0.7-0.3l0.5-0.5V32c0,0.6,0.4,1,1,1c0.6,0,1-0.4,1-1v-0.9l0.5,0.5c0.2,0.2,0.5,0.3,0.7,0.3  c0.3,0,0.5-0.1,0.7-0.3c0.4-0.4,0.4-1,0-1.4L21,28.3v-3.4c0.6-0.1,1.2-0.4,1.8-0.7l1.3,1.3l-0.4,0.4c-0.4,0.4-0.4,1,0,1.4  c0.2,0.2,0.5,0.3,0.7,0.3c0.3,0,0.5-0.1,0.7-0.3l0.4-0.4l0.1,0.1c0.2,0.2,0.5,0.3,0.7,0.3c0.3,0,0.5-0.1,0.7-0.3  c0.4-0.4,0.4-1,0-1.4l-0.1-0.1l0.4-0.4c0.4-0.4,0.4-1,0-1.4c-0.4-0.4-1-0.4-1.4,0L25.5,24l-1.3-1.3c0.3-0.5,0.6-1.1,0.7-1.8h2.3  l1.9,1.9c0.2,0.2,0.5,0.3,0.7,0.3c0.3,0,0.5-0.1,0.7-0.3c0.4-0.4,0.4-1,0-1.4L30.1,21H32c0.6,0,1-0.4,1-1C33,19.4,32.6,19,32,19z   M20,23c-1.7,0-3-1.3-3-3s1.3-3,3-3c1.7,0,3,1.3,3,3S21.7,23,20,23z"></path></g></g></g><g class="sampleTexts_1" transform="scale(1) translate(0.000006103515630684342,39.81500244140625)"><g class="logo--name svgLogoName_1 logoNameBox" transform="scale(1) translate(195.4499999523163,220.47999572753906)" fill="#000000"><path d="M47.72-19.52L55.68-19.52L55.68 0L2.95 0L2.95-6.81L13.53-6.81L13.53-49.45L2.95-49.45L2.95-56.25L32.47-56.25L32.47-49.45L21.98-49.45L21.98-6.81L47.72-6.81L47.72-19.52ZM99.65-10.99L103.09-5.74L103.09-5.74Q95.22 1.15 85.13 1.15L85.13 1.15L85.13 1.15Q79.64 1.15 74.72-1.15L74.72-1.15L74.72-1.15Q69.80-3.44 66.76-7.87L66.76-7.87L66.76-7.87Q63.73-12.30 63.73-18.37L63.73-18.37L63.73-18.37Q63.73-24.85 66.85-29.68L66.85-29.68L66.85-29.68Q69.96-34.52 74.96-37.11L74.96-37.11L74.96-37.11Q79.97-39.69 85.46-39.69L85.46-39.69L85.46-39.69Q90.30-39.69 94.11-38.13L94.11-38.13L94.11-38.13Q97.92-36.57 100.10-33.78L100.10-33.78L100.10-33.78Q102.27-31.00 102.27-27.39L102.27-27.39L102.27-27.39Q102.27-21.98 97.64-18.98L97.64-18.98L97.64-18.98Q93.00-15.99 86.53-15.99L86.53-15.99L86.53-15.99Q82.34-15.99 78.74-16.85L78.74-16.85L78.74-16.85Q75.13-17.71 71.44-19.35L71.44-19.35L71.44-18.61L71.44-18.61Q71.44-14.76 73.28-11.81L73.28-11.81L73.28-11.81Q75.13-8.86 78.24-7.30L78.24-7.30L78.24-7.30Q81.36-5.74 85.05-5.74L85.05-5.74L85.05-5.74Q93.41-5.74 99.65-10.99L99.65-10.99ZM86.03-33.29L86.03-33.29Q81.61-33.29 77.79-30.75L77.79-30.75L77.79-30.75Q73.98-28.21 72.34-23.86L72.34-23.86L72.34-23.86Q78.57-21.65 84.80-21.65L84.80-21.65L84.80-21.65Q88.90-21.65 91.57-23.17L91.57-23.17L91.57-23.17Q94.23-24.68 94.23-27.39L94.23-27.39L94.23-27.39Q94.23-30.01 91.94-31.65L91.94-31.65L91.94-31.65Q89.64-33.29 86.03-33.29L86.03-33.29ZM153.70-6.81L155.34-0.98L155.34-0.98Q152.63 0.66 149.03 0.66L149.03 0.66L149.03 0.66Q145.99 0.66 143.90-1.11L143.90-1.11L143.90-1.11Q141.81-2.87 140.99-6.15L140.99-6.15L140.99-6.15Q132.79 1.15 124.75 1.15L124.75 1.15L124.75 1.15Q119.10 1.15 115.16-2.05L115.16-2.05L115.16-2.05Q111.22-5.25 111.22-10.99L111.22-10.99L111.22-10.99Q111.22-14.92 113.44-17.84L113.44-17.84L113.44-17.84Q115.65-20.75 119.38-22.26L119.38-22.26L119.38-22.26Q123.11-23.78 127.46-23.78L127.46-23.78L127.46-23.78Q131.15-23.78 134.27-23.08L134.27-23.08L134.27-23.08Q137.38-22.39 140.66-21.07L140.66-21.07L140.66-24.68L140.66-24.68Q140.66-28.86 137.87-30.83L137.87-30.83L137.87-30.83Q135.09-32.80 130.58-32.80L130.58-32.80L130.58-32.80Q124.18-32.80 115.16-29.27L115.16-29.27L113.52-35.51L113.52-35.51Q123.20-39.61 131.56-39.61L131.56-39.61L131.56-39.61Q139.51-39.61 143.90-35.71L143.90-35.71L143.90-35.71Q148.29-31.82 148.29-24.35L148.29-24.35L148.29-10.17L148.29-10.17Q148.29-6.15 151.16-6.15L151.16-6.15L151.16-6.15Q152.39-6.15 153.70-6.81L153.70-6.81ZM119.18-11.40L119.18-11.40Q119.18-8.61 121.39-7.09L121.39-7.09L121.39-7.09Q123.61-5.58 126.80-5.58L126.80-5.58L126.80-5.58Q129.59-5.58 133.20-7.05L133.20-7.05L133.20-7.05Q136.81-8.53 140.66-11.40L140.66-11.40L140.66-15.74L140.66-15.74Q135.09-17.71 128.85-17.88L128.85-17.88L128.85-17.88Q124.84-17.88 122.01-16.20L122.01-16.20L122.01-16.20Q119.18-14.51 119.18-11.40L119.18-11.40ZM208.33-6.48L216.04-6.48L216.04 0L193.24 0L193.24-6.48L200.37-6.48L200.37-22.47L200.37-22.47Q200.37-26.98 198.12-29.56L198.12-29.56L198.12-29.56Q195.86-32.14 191.68-32.14L191.68-32.14L191.68-32.14Q184.55-32.14 176.59-23.12L176.59-23.12L176.59-6.48L183.73-6.48L183.73 0L159.87 0L159.87-6.48L168.56-6.48L168.56-32.14L159.87-32.14L159.87-38.62L176.59-38.62L176.59-29.52L176.59-29.52Q181.19-34.60 185.41-37.11L185.41-37.11L185.41-37.11Q189.63-39.61 194.47-39.61L194.47-39.61L194.47-39.61Q201.11-39.61 204.72-35.34L204.72-35.34L204.72-35.34Q208.33-31.08 208.33-22.71L208.33-22.71L208.33-6.48ZM232.37-47.40L232.37-47.40Q229.75-47.40 227.94-48.79L227.94-48.79L227.94-48.79Q226.14-50.18 226.14-52.32L226.14-52.32L226.14-52.32Q226.14-54.53 227.94-55.97L227.94-55.97L227.94-55.97Q229.75-57.40 232.37-57.40L232.37-57.40L232.37-57.40Q235.16-57.40 236.96-55.97L236.96-55.97L236.96-55.97Q238.77-54.53 238.77-52.32L238.77-52.32L238.77-52.32Q238.77-50.18 236.96-48.79L236.96-48.79L236.96-48.79Q235.16-47.40 232.37-47.40L232.37-47.40ZM237.29-6.48L246.06-6.48L246.06 0L220.56 0L220.56-6.48L229.25-6.48L229.25-32.14L220.56-32.14L220.56-38.62L237.29-38.62L237.29-6.48ZM275.68-53.30L275.68-53.30Q271.91-53.30 269.61-50.92L269.61-50.92L269.61-50.92Q267.32-48.54 267.32-44.36L267.32-44.36L267.32-38.62L279.62-38.62L279.62-32.14L267.32-32.14L267.32-6.48L278.63-6.48L278.63 0L250.67 0L250.67-6.48L259.36-6.48L259.36-32.14L250.67-32.14L250.67-38.62L259.36-38.62L259.36-44.12L259.36-44.12Q259.36-51.74 263.59-55.92L263.59-55.92L263.59-55.92Q267.81-60.11 274.86-60.11L274.86-60.11L274.86-60.11Q278.47-60.11 281.46-59.16L281.46-59.16L281.46-59.16Q284.46-58.22 288.39-56.42L288.39-56.42L285.44-50.18L285.44-50.18Q282.90-51.66 280.56-52.48L280.56-52.48L280.56-52.48Q278.22-53.30 275.68-53.30L275.68-53.30ZM336.95-38.62L336.95-32.14L330.88-32.14L314.65 4.26L314.65 4.26Q311.20 11.89 306.90 15.70L306.90 15.70L306.90 15.70Q302.59 19.52 296.85 19.52L296.85 19.52L296.85 19.52Q293.66 19.52 291.07 18.49L291.07 18.49L291.07 18.49Q288.49 17.47 285.46 15.50L285.46 15.50L288.74 9.35L288.74 9.35Q292.92 12.38 296.85 12.38L296.85 12.38L296.85 12.38Q300.38 12.38 303.17 10.13L303.17 10.13L303.17 10.13Q305.96 7.87 308.09 2.95L308.09 2.95L308.66 1.64L292.10-32.14L285.70-32.14L285.70-38.62L307.35-38.62L307.35-32.72L300.71-32.72L312.35-6.81L323.75-32.72L317.44-32.72L317.44-38.62L336.95-38.62Z"></path></g><g class="logo--name svgSloganText_1 sloganBox" transform="scale(1) translate(198.4,259.2)" fill="#000000"><text></text></g></g></g></g></svg>